<svg xmlns="http://www.w3.org/2000/svg" width="806" height="310" viewBox="0 0 806 310">
<g>
<path d="M 579.77 186.77 L 579.50 208.50 L 570.48 208.78 C564.33,208.98 561.08,208.68 560.23,207.83 C559.29,206.89 559.00,194.37 559.00,153.87 C559.00,107.27 559.18,100.96 560.57,99.57 C561.93,98.21 566.27,98.00 592.87,98.00 C615.44,98.00 623.92,98.32 624.80,99.20 C625.52,99.92 626.00,103.42 626.00,108.00 C626.00,112.58 625.52,116.08 624.80,116.80 C623.94,117.66 617.42,118.00 601.77,118.00 L 579.95 118.00 L 580.50 146.36 L 598.00 146.54 C607.62,146.64 616.53,146.79 617.79,146.86 C620.01,147.00 620.07,147.25 619.79,155.75 L 619.50 164.50 L 599.77 164.77 L 580.04 165.04 ZM 562.25 207.34 C562.94,207.62 566.52,207.88 570.21,207.92 C576.01,207.99 577.08,207.72 578.03,205.95 C578.74,204.61 579.05,197.21 578.91,184.90 C578.79,174.45 579.10,165.51 579.60,165.01 C580.09,164.52 588.60,163.91 598.50,163.65 C608.40,163.39 616.57,163.14 616.65,163.09 C617.66,162.49 618.79,156.16 618.32,153.70 C617.25,148.00 617.24,148.00 597.94,148.00 C586.75,148.00 579.88,147.62 579.48,146.97 C579.03,146.24 578.16,120.81 578.48,117.80 C578.49,117.69 588.62,117.35 601.00,117.05 L 623.50 116.50 L 623.79 108.25 L 624.08 100.00 L 561.00 100.00 L 561.00 153.42 C561.00,195.21 561.27,206.94 562.25,207.34 ZM 717.29 208.48 C716.31,208.87 711.90,209.37 707.50,209.59 C695.28,210.20 687.77,207.54 682.66,200.77 C678.66,195.46 678.01,190.91 678.01,167.88 L 678.00 146.26 L 672.87 146.15 C665.88,145.99 665.00,145.01 665.00,137.41 C665.00,129.88 665.98,129.00 674.37,129.00 L 679.88 129.00 L 680.45 124.75 C680.76,122.41 681.13,117.57 681.26,114.00 L 681.50 107.50 L 688.00 106.77 C688.22,106.75 688.44,106.72 688.66,106.70 C693.02,106.21 695.34,105.95 696.58,106.98 C698.00,108.17 698.00,111.06 698.00,117.25 C698.00,117.52 698.00,117.79 698.00,118.07 L 698.00 129.00 L 707.30 129.00 C713.20,129.00 717.04,129.44 717.80,130.20 C719.18,131.58 719.46,144.60 718.13,145.42 C717.65,145.72 712.92,146.02 707.63,146.08 L 698.00 146.21 L 698.00 166.93 C698.00,187.17 698.05,187.70 700.27,189.78 C702.11,191.52 704.00,191.96 710.52,192.20 L 718.50 192.50 L 718.79 200.13 C719.04,206.69 718.83,207.86 717.29,208.48 ZM 691.06 205.41 C694.87,207.50 696.88,207.86 705.18,207.93 C717.12,208.02 718.46,207.14 717.75,199.71 C717.49,197.00 716.65,194.39 715.89,193.91 C715.12,193.43 711.93,193.02 708.80,193.02 C701.43,193.00 698.33,191.52 696.97,187.42 C695.61,183.29 695.81,150.54 697.22,146.75 C698.22,144.05 698.33,144.02 704.87,144.60 C708.78,144.95 712.65,144.75 714.30,144.10 C716.97,143.06 717.09,142.75 716.80,137.26 L 716.50 131.50 L 707.55 131.21 C702.63,131.05 698.02,130.43 697.30,129.84 C696.41,129.10 696.00,125.96 696.00,119.96 C696.00,108.06 695.96,108.00 689.06,108.00 C685.26,108.00 683.26,108.42 683.12,109.25 C683.00,109.94 682.58,114.68 682.20,119.79 C681.45,129.72 680.75,130.96 675.88,130.98 C674.43,130.99 671.84,131.28 670.12,131.62 C667.05,132.24 667.00,132.35 667.00,138.12 C667.00,141.36 667.34,144.06 667.75,144.13 C668.16,144.20 670.45,144.37 672.84,144.52 C675.23,144.66 677.57,145.17 678.04,145.64 C678.52,146.12 679.10,156.86 679.34,169.52 C679.89,198.26 680.29,199.48 691.06,205.41 ZM 352.00 185.50 L 351.50 208.50 L 342.95 208.79 C338.25,208.94 334.09,208.76 333.70,208.37 C333.32,207.98 333.00,190.51 333.00,169.53 C333.00,141.21 333.31,131.09 334.20,130.20 C335.45,128.95 347.56,128.51 350.42,129.61 C351.53,130.03 352.00,131.52 352.00,134.61 L 352.00 139.00 L 357.84 134.46 C364.74,129.10 372.77,127.06 376.79,129.63 C378.90,130.98 379.06,131.71 378.79,138.80 L 378.50 146.50 L 371.83 147.07 C363.85,147.76 359.51,150.57 355.27,157.78 C352.51,162.49 352.50,162.57 352.00,185.50 ZM 335.25 207.34 C337.04,208.06 345.10,208.08 347.75,207.37 C349.97,206.77 350.00,206.54 350.08,189.13 C350.20,165.84 350.79,161.69 354.88,155.46 C358.87,149.38 362.57,147.04 370.50,145.54 L 376.50 144.41 L 376.81 138.48 C377.15,131.92 375.84,129.99 371.06,130.01 C367.39,130.02 358.90,134.27 356.20,137.43 C353.62,140.46 350.68,140.49 350.22,137.49 C349.71,134.11 349.50,132.49 348.58,131.72 C347.72,131.00 346.27,131.00 343.41,131.00 L 343.06 131.00 C342.25,131.00 341.50,130.97 340.83,130.95 C338.91,130.89 337.52,130.84 336.52,131.44 C333.94,132.99 333.95,138.87 333.99,160.01 C333.99,162.89 334.00,166.05 334.00,169.52 C334.00,198.44 334.28,206.95 335.25,207.34 ZM 100.84 262.02 C82.40,265.80 78.09,263.99 78.03,252.44 L 78.00 246.37 L 88.25 244.03 C104.93,240.21 120.43,233.70 139.67,222.41 L 142.85 220.55 L 148.67 226.07 C151.88,229.11 155.60,232.35 156.94,233.27 C158.28,234.20 159.18,235.11 158.94,235.30 C155.39,238.10 142.43,245.81 135.13,249.46 C121.74,256.15 111.91,259.75 100.84,262.02 ZM 83.27 261.33 C86.50,262.01 98.61,261.01 105.00,259.53 C118.82,256.34 146.21,243.47 152.08,237.42 L 155.31 234.09 L 149.90 229.06 C142.75,222.40 141.71,222.15 136.49,225.90 C134.11,227.61 131.49,229.00 130.65,229.00 C129.81,229.00 128.86,229.42 128.54,229.94 C127.28,231.97 103.08,241.92 93.50,244.34 C81.69,247.33 79.53,248.32 79.15,250.96 C78.56,255.18 80.79,260.81 83.27,261.33 ZM 307.76 162.75 L 307.50 208.50 L 298.45 208.78 C293.47,208.94 289.09,208.75 288.70,208.37 C288.32,207.98 288.11,187.38 288.24,162.58 L 288.48 117.50 L 288.75 161.95 C288.96,195.97 289.31,206.58 290.26,207.18 C291.73,208.11 303.14,208.27 305.43,207.39 C306.86,206.84 307.03,202.14 306.98,162.28 C306.94,129.96 307.24,117.41 308.09,116.40 C308.97,115.33 312.36,115.00 322.42,115.00 C331.34,115.00 335.99,114.61 336.80,113.80 C337.46,113.14 338.00,110.02 338.00,106.87 C338.00,102.15 337.67,101.03 336.13,100.54 C333.46,99.69 274.96,99.14 266.00,99.88 L 258.50 100.50 L 258.50 106.70 C258.50,110.11 259.00,113.40 259.61,114.01 C260.28,114.68 264.95,115.10 271.63,115.08 C277.63,115.06 283.88,115.45 285.52,115.94 C287.61,116.56 284.28,116.85 274.33,116.91 C266.54,116.96 259.45,116.73 258.58,116.39 C257.33,115.91 257.00,114.19 257.00,108.09 C257.00,103.44 257.47,99.93 258.20,99.20 C259.84,97.56 337.55,97.47 338.56,99.10 C339.59,100.77 340.32,111.58 339.60,114.46 L 338.96 117.00 L 308.02 117.00 ZM 652.64 116.37 C648.56,118.30 648.37,118.31 644.50,116.60 C640.19,114.70 637.91,111.72 637.31,107.24 C636.85,103.88 637.23,102.81 639.90,99.77 C643.58,95.57 646.94,94.50 651.59,96.03 C660.94,99.12 661.62,112.11 652.64,116.37 ZM 643.82 114.72 C650.92,117.53 657.01,113.78 656.98,106.61 C656.97,101.97 656.52,101.08 653.03,98.69 C645.22,93.35 634.98,102.23 639.42,110.48 C640.36,112.23 642.34,114.14 643.82,114.72 ZM 87.14 160.61 C82.39,163.02 78.24,164.99 77.92,164.99 C76.50,165.01 76.00,163.33 76.01,158.58 C76.04,150.29 76.67,149.20 83.38,145.81 C91.63,141.65 97.04,137.04 104.27,128.04 C107.60,123.90 112.16,118.56 114.41,116.18 C125.46,104.51 143.42,103.39 157.23,113.52 C161.54,116.68 167.27,125.00 165.14,125.00 C164.65,125.00 163.68,123.64 162.99,121.98 C161.58,118.58 156.58,114.32 150.21,111.09 C144.64,108.27 134.84,107.36 127.88,109.02 C123.26,110.12 121.51,111.31 115.48,117.40 C111.61,121.31 106.89,126.49 104.98,128.93 C98.45,137.24 89.02,145.19 82.20,148.12 L 77.90 149.97 L 78.20 155.74 C78.47,160.87 78.72,161.46 80.50,161.17 C84.70,160.48 98.71,152.79 103.49,148.56 C106.23,146.13 108.65,144.32 108.88,144.54 C110.39,146.06 98.49,154.85 87.14,160.61 ZM 545.43 174.43 C544.08,175.78 540.02,176.00 516.37,176.00 C498.30,176.00 489.09,175.66 489.50,175.00 C489.89,174.37 500.14,174.00 516.95,174.00 C518.55,174.00 520.06,174.00 521.49,174.00 C538.45,174.02 543.24,174.02 544.54,171.89 C545.05,171.06 545.02,169.89 544.98,168.27 C544.98,167.93 544.97,167.56 544.96,167.17 C544.87,156.95 539.43,143.93 532.68,137.75 C530.42,135.69 529.09,134.00 529.71,134.00 C531.87,134.00 539.88,143.05 542.34,148.26 C546.69,157.48 548.35,171.51 545.43,174.43 ZM 521.10 194.86 C515.02,197.48 509.23,197.53 502.01,195.04 C495.13,192.66 489.86,186.83 488.65,180.25 C487.87,176.02 489.62,176.01 490.55,180.24 C491.86,186.19 496.04,191.20 501.72,193.63 C506.17,195.53 518.31,195.41 522.14,193.43 C523.82,192.56 525.38,192.05 525.62,192.29 C525.86,192.53 523.83,193.69 521.10,194.86 Z" fill="rgb(232,126,117)"/>
<path d="M 195.02 177.88 C194.59,180.25 193.54,182.89 192.70,183.73 C191.32,185.10 190.90,184.99 188.53,182.62 C187.08,181.17 184.23,176.50 182.20,172.24 L 178.50 164.50 L 178.46 145.00 C178.41,122.70 177.72,119.99 169.89,111.49 C156.60,97.07 136.14,92.09 120.51,99.46 C113.84,102.60 104.74,110.87 93.82,123.72 C87.02,131.72 81.78,136.00 78.79,136.00 C77.98,136.00 76.81,134.89 76.19,133.53 C74.74,130.33 71.46,129.57 63.75,130.67 C52.32,132.29 45.74,129.45 44.40,122.34 L 44.38 122.20 C44.09,120.69 43.86,119.46 43.91,118.25 C44.11,112.94 49.55,107.84 78.71,80.28 C97.20,62.80 115.97,45.03 120.42,40.79 C134.13,27.70 139.48,27.25 151.00,38.17 C154.57,41.57 168.07,54.54 181.00,67.00 C193.93,79.46 209.21,94.07 214.96,99.47 C228.83,112.46 229.52,113.40 229.43,119.22 C229.35,124.39 227.00,127.89 221.80,130.60 C218.38,132.38 204.99,132.48 202.81,130.75 C201.95,130.06 200.97,127.35 200.64,124.71 C199.06,112.28 188.01,95.21 176.19,86.92 C159.32,75.10 152.75,72.67 137.50,72.60 C128.71,72.56 125.00,73.02 119.00,74.88 C105.32,79.12 88.45,92.22 81.89,103.70 C78.03,110.44 77.73,112.33 80.12,114.89 C83.41,118.43 85.99,117.36 89.85,110.87 C93.82,104.21 106.24,93.45 114.68,89.35 C122.03,85.78 123.17,85.53 133.55,85.17 C150.20,84.61 159.31,87.86 173.28,99.36 C179.01,104.07 183.61,110.41 187.53,119.00 C190.49,125.47 190.50,125.58 190.52,144.50 C190.54,163.08 190.59,163.61 193.17,168.53 C195.41,172.79 195.69,174.22 195.02,177.88 ZM 88.58 208.68 C77.32,212.26 76.00,212.41 76.00,210.19 C76.00,209.17 74.85,207.72 73.44,206.97 C71.33,205.84 70.34,205.83 67.69,206.89 C57.62,210.96 55.66,211.30 51.81,209.69 C45.91,207.23 44.50,203.48 44.51,190.39 C44.52,178.10 45.56,174.80 50.16,172.41 C54.48,170.18 57.15,170.71 63.97,175.14 C70.24,179.21 70.38,179.25 73.42,177.67 C75.11,176.79 78.89,175.19 81.80,174.11 C99.26,167.66 117.32,153.78 126.00,140.16 C131.78,131.08 135.49,129.15 140.05,132.84 C145.18,136.99 141.63,145.13 128.85,158.50 C117.25,170.63 108.78,176.18 92.62,182.25 C85.46,184.94 78.79,187.58 77.80,188.11 C75.34,189.42 75.54,192.49 78.24,195.01 C80.98,197.56 84.79,197.12 96.21,192.92 C112.25,187.01 122.36,180.45 134.05,168.35 C145.37,156.63 149.38,151.52 152.44,144.96 C155.55,138.28 155.64,134.95 152.86,129.20 C150.08,123.47 143.30,120.02 134.75,120.01 C129.51,120.00 128.64,120.33 124.84,123.75 C122.55,125.81 118.62,130.61 116.09,134.41 C113.57,138.22 110.49,142.81 109.26,144.62 C109.18,144.74 109.10,144.86 109.00,144.98 C109.03,144.80 108.99,144.65 108.88,144.54 C108.65,144.32 106.23,146.13 103.49,148.56 C98.71,152.79 84.70,160.48 80.50,161.17 C78.72,161.46 78.47,160.87 78.20,155.74 L 77.90 149.97 L 82.20 148.12 C89.02,145.19 98.45,137.24 104.98,128.93 C106.89,126.49 111.61,121.31 115.48,117.40 C121.51,111.31 123.26,110.12 127.88,109.02 C134.84,107.36 144.64,108.27 150.21,111.09 C156.58,114.32 161.58,118.58 162.99,121.98 C163.68,123.64 164.65,125.00 165.14,125.00 C165.20,125.00 165.24,124.99 165.29,124.98 C166.23,129.42 166.59,135.92 166.98,146.51 C167.73,167.21 167.82,167.88 170.99,175.81 C173.53,182.19 175.70,185.54 181.11,191.48 C184.90,195.64 187.99,199.37 187.98,199.77 C187.95,201.22 183.47,208.35 182.36,208.72 C180.92,209.19 172.87,202.26 167.78,196.16 C164.19,191.86 161.72,187.34 156.91,176.25 C154.23,170.06 150.95,170.32 143.31,177.33 C125.26,193.89 112.93,200.95 88.58,208.68 ZM 521.10 194.86 C523.83,193.69 525.86,192.53 525.62,192.29 C525.53,192.20 525.26,192.22 524.87,192.31 C526.66,191.52 528.11,190.57 528.99,189.51 C530.94,187.16 534.20,187.73 537.72,191.03 C540.60,193.72 540.82,194.31 539.79,196.56 C538.28,199.87 528.10,206.60 521.72,208.49 C516.29,210.10 504.78,210.34 498.95,208.96 C488.60,206.50 478.57,197.27 473.83,185.85 C470.52,177.89 470.57,160.93 473.92,152.55 C480.39,136.34 499.77,126.35 517.00,130.34 C523.05,131.74 526.73,132.81 529.58,134.25 C529.75,134.80 530.94,136.16 532.68,137.75 C539.43,143.93 544.87,156.95 544.96,167.17 C544.97,167.56 544.98,167.93 544.98,168.27 C545.02,169.89 545.05,171.06 544.54,171.89 C543.24,174.02 538.45,174.02 521.49,174.00 C520.06,174.00 518.55,174.00 516.95,174.00 C500.14,174.00 489.89,174.37 489.50,175.00 C489.09,175.66 498.30,176.00 516.37,176.00 L 489.78 176.00 L 490.46 179.65 C491.01,182.55 492.20,185.22 493.90,187.51 C492.29,185.37 491.14,182.90 490.55,180.24 C489.62,176.01 487.87,176.02 488.65,180.25 C489.86,186.83 495.13,192.66 502.01,195.04 C509.23,197.53 515.02,197.48 521.10,194.86 ZM 562.25 207.34 C561.27,206.94 561.00,195.21 561.00,153.42 L 561.00 100.00 L 624.08 100.00 L 623.79 108.25 L 623.50 116.50 L 601.00 117.05 C588.62,117.35 578.49,117.69 578.48,117.80 C578.16,120.81 579.03,146.24 579.48,146.97 C579.88,147.62 586.75,148.00 597.94,148.00 C617.24,148.00 617.25,148.00 618.32,153.70 C618.79,156.16 617.66,162.49 616.65,163.09 C616.57,163.14 608.40,163.39 598.50,163.65 C588.60,163.91 580.09,164.52 579.60,165.01 C579.10,165.51 578.79,174.45 578.91,184.90 C579.05,197.21 578.74,204.61 578.03,205.95 C577.08,207.72 576.01,207.99 570.21,207.92 C566.52,207.88 562.94,207.62 562.25,207.34 ZM 427.17 208.60 C416.83,212.30 402.52,208.53 395.58,200.28 C389.73,193.32 389.00,188.77 389.00,159.22 C389.00,139.69 389.33,132.07 390.20,131.20 C391.52,129.88 403.75,129.55 405.69,130.79 C406.54,131.33 406.96,139.02 407.19,158.26 L 407.50 184.97 L 411.76 189.24 C416.01,193.48 416.07,193.50 423.34,193.50 C429.86,193.50 431.07,193.19 434.43,190.62 C440.67,185.86 441.00,184.13 441.00,156.14 C441.00,154.04 441.00,152.11 440.99,150.33 C440.96,136.79 440.95,132.20 443.10,130.68 C444.21,129.90 445.89,129.93 448.42,129.98 C449.07,129.99 449.78,130.00 450.55,130.00 C455.83,130.00 457.11,130.33 457.96,131.93 C458.62,133.16 459.00,146.96 459.00,169.86 C459.00,172.21 459.00,174.41 459.00,176.48 C459.02,200.01 459.03,206.58 456.11,208.38 C454.97,209.07 453.40,209.05 451.21,209.02 C450.72,209.01 450.19,209.00 449.63,209.00 C442.95,209.00 441.00,207.95 441.00,204.36 C441.00,200.73 439.23,200.65 434.91,204.07 C432.68,205.84 429.20,207.88 427.17,208.60 ZM 288.24 162.58 C288.11,187.25 288.31,207.76 288.70,208.36 C288.31,207.76 288.00,187.13 288.00,162.33 L 288.00 117.00 L 274.08 117.00 C266.43,117.00 259.46,116.73 258.58,116.39 C259.46,116.73 266.54,116.96 274.33,116.91 C284.28,116.85 287.61,116.56 285.52,115.94 C283.88,115.45 277.63,115.06 271.63,115.08 C264.95,115.10 260.28,114.68 259.61,114.01 C259.00,113.40 258.50,110.11 258.50,106.70 L 258.50 100.50 L 266.00 99.88 C274.96,99.14 333.46,99.69 336.13,100.54 C337.67,101.03 338.00,102.15 338.00,106.87 C338.00,110.02 337.46,113.14 336.80,113.80 C335.99,114.61 331.34,115.00 322.42,115.00 C312.36,115.00 308.97,115.33 308.09,116.40 C307.24,117.41 306.94,129.96 306.98,162.28 C307.03,202.14 306.86,206.84 305.43,207.39 C303.14,208.27 291.73,208.11 290.26,207.18 C289.31,206.58 288.96,195.97 288.75,161.95 L 288.48 117.50 ZM 691.06 205.41 C680.29,199.48 679.89,198.26 679.34,169.52 C679.10,156.86 678.52,146.12 678.04,145.64 C677.57,145.17 675.23,144.66 672.84,144.52 C670.45,144.37 668.16,144.20 667.75,144.13 C667.34,144.06 667.00,141.36 667.00,138.12 C667.00,132.35 667.05,132.24 670.12,131.62 C671.84,131.28 674.43,130.99 675.88,130.98 C680.75,130.96 681.45,129.72 682.20,119.79 C682.58,114.68 683.00,109.94 683.12,109.25 C683.26,108.42 685.26,108.00 689.06,108.00 C695.96,108.00 696.00,108.06 696.00,119.96 C696.00,125.96 696.41,129.10 697.30,129.84 C698.02,130.43 702.63,131.05 707.55,131.21 L 716.50 131.50 L 716.80 137.26 C717.09,142.75 716.97,143.06 714.30,144.10 C712.65,144.75 708.78,144.95 704.87,144.60 C698.33,144.02 698.22,144.05 697.22,146.75 C695.81,150.54 695.61,183.29 696.97,187.42 C698.33,191.52 701.43,193.00 708.80,193.02 C711.93,193.02 715.12,193.43 715.89,193.91 C716.65,194.39 717.49,197.00 717.75,199.71 C718.46,207.14 717.12,208.02 705.18,207.93 C696.88,207.86 694.87,207.50 691.06,205.41 ZM 335.25 207.34 C334.28,206.95 334.00,198.44 334.00,169.52 C334.00,166.05 333.99,162.89 333.99,160.01 C333.95,138.87 333.94,132.99 336.52,131.44 C337.52,130.84 338.91,130.89 340.83,130.95 C341.50,130.97 342.25,131.00 343.06,131.00 L 343.41 131.00 C346.27,131.00 347.72,131.00 348.58,131.72 C349.50,132.49 349.71,134.11 350.22,137.49 C350.68,140.49 353.62,140.46 356.20,137.43 C358.90,134.27 367.39,130.02 371.06,130.01 C375.84,129.99 377.15,131.92 376.81,138.48 L 376.50 144.41 L 370.50 145.54 C362.57,147.04 358.87,149.38 354.88,155.46 C350.79,161.69 350.20,165.84 350.08,189.13 C350.00,206.54 349.97,206.77 347.75,207.37 C345.10,208.08 337.04,208.06 335.25,207.34 ZM 655.70 207.64 C654.56,208.77 641.76,209.26 640.24,208.23 C639.25,207.55 639.03,198.99 639.24,168.93 L 639.50 130.50 L 647.72 130.21 C655.57,129.93 655.97,130.02 656.50,132.21 C657.36,135.76 656.60,206.73 655.70,207.64 ZM 88.85 233.40 C78.77,236.25 77.63,235.65 78.19,227.86 L 78.50 223.50 L 84.00 222.38 C103.71,218.37 124.79,207.59 142.46,192.49 L 147.99 187.77 L 149.96 190.13 C151.05,191.43 151.95,192.86 151.97,193.29 C152.04,195.10 160.86,205.95 167.20,212.03 C170.94,215.62 174.00,219.07 174.00,219.70 C174.00,221.81 168.85,227.00 166.74,227.00 C165.44,227.00 161.15,223.44 155.27,217.50 C149.54,211.70 145.09,208.00 143.85,208.00 C142.73,208.00 139.27,209.73 136.16,211.85 C122.04,221.45 107.12,228.25 88.85,233.40 ZM 83.27 261.33 C80.79,260.81 78.56,255.18 79.15,250.96 C79.53,248.32 81.69,247.33 93.50,244.34 C103.08,241.92 127.28,231.97 128.54,229.94 C128.86,229.42 129.81,229.00 130.65,229.00 C131.49,229.00 134.11,227.61 136.49,225.90 C141.71,222.15 142.75,222.40 149.90,229.06 L 155.31 234.09 L 152.08 237.42 C146.21,243.47 118.82,256.34 105.00,259.53 C98.61,261.01 86.50,262.01 83.27,261.33 ZM 490.54 161.66 C491.91,162.65 496.66,163.00 509.00,163.00 C528.54,163.00 529.59,162.64 527.89,156.50 C526.28,150.71 520.27,145.31 514.45,144.44 C502.26,142.61 491.72,148.08 489.42,157.41 C488.87,159.63 489.14,160.63 490.54,161.66 ZM 119.31 62.83 C120.51,63.43 122.40,63.67 123.50,63.38 C128.59,62.01 141.76,61.82 148.12,63.02 C154.42,64.21 155.16,64.17 157.00,62.50 C159.71,60.04 159.52,58.62 156.08,55.72 C151.75,52.08 141.40,49.57 133.92,50.35 C120.50,51.75 111.85,59.14 119.31,62.83 ZM 643.82 114.72 C642.34,114.14 640.36,112.23 639.42,110.48 C634.98,102.23 645.22,93.35 653.03,98.69 C656.52,101.08 656.97,101.97 656.98,106.61 C657.01,113.78 650.92,117.53 643.82,114.72 ZM 164.22 121.38 C162.55,118.73 159.66,115.30 157.23,113.52 C160.73,116.09 162.86,118.03 164.22,121.38 ZM 545.65 174.17 C547.59,171.63 547.16,163.48 545.05,155.77 C546.31,160.08 547.00,164.64 547.00,169.11 L 547.00 169.16 C547.00,171.02 547.00,172.38 546.40,173.36 C546.21,173.67 545.97,173.93 545.65,174.17 ZM 522.73 193.14 C522.54,193.23 522.34,193.32 522.14,193.43 C520.34,194.36 516.71,194.88 512.90,194.97 C516.32,194.76 519.81,194.11 522.73,193.14 ZM 535.58 138.76 C537.21,140.38 538.70,142.29 540.03,144.41 C538.61,142.35 536.86,140.19 535.19,138.37 C535.32,138.50 535.45,138.63 535.58,138.76 ZM 102.52 151.22 C102.13,151.52 101.75,151.82 101.37,152.10 C99.45,153.51 96.85,155.16 94.05,156.78 C97.16,154.92 100.09,152.99 102.52,151.22 ZM 76.25 153.41 C76.35,152.57 76.48,151.81 76.64,151.20 C76.82,150.54 77.33,149.84 78.17,149.09 C77.06,150.20 76.52,151.48 76.25,153.41 Z" fill="rgb(250,103,89)"/>
<path d="M 0.00 155.00 L 0.00 0.00 L 403.00 0.00 L 806.00 0.00 L 806.00 155.00 L 806.00 310.00 L 403.00 310.00 L 0.00 310.00 L 0.00 155.00 ZM 100.84 262.02 C111.91,259.75 121.74,256.15 135.13,249.46 C142.43,245.81 155.39,238.10 158.94,235.30 C159.18,235.11 158.28,234.20 156.94,233.27 C155.60,232.35 151.88,229.11 148.67,226.07 L 142.85 220.55 L 139.67 222.41 C120.43,233.70 104.93,240.21 88.25,244.03 L 78.00 246.37 L 78.03 252.44 C78.09,263.99 82.40,265.80 100.84,262.02 ZM 88.85 233.40 C107.12,228.25 122.04,221.45 136.16,211.85 C139.27,209.73 142.73,208.00 143.85,208.00 C145.09,208.00 149.54,211.70 155.27,217.50 C161.15,223.44 165.44,227.00 166.74,227.00 C168.85,227.00 174.00,221.81 174.00,219.70 C174.00,219.07 170.94,215.62 167.20,212.03 C160.86,205.95 152.04,195.10 151.97,193.29 C151.95,192.86 151.05,191.43 149.96,190.13 L 147.99 187.77 L 142.46 192.49 C124.79,207.59 103.71,218.37 84.00,222.38 L 78.50 223.50 L 78.19 227.86 C77.63,235.65 78.77,236.25 88.85,233.40 ZM 88.58 208.68 C112.93,200.95 125.26,193.89 143.31,177.33 C150.95,170.32 154.23,170.06 156.91,176.25 C161.72,187.34 164.19,191.86 167.78,196.16 C172.87,202.26 180.92,209.19 182.36,208.72 C183.47,208.35 187.95,201.22 187.98,199.77 C187.99,199.37 184.90,195.64 181.11,191.48 C175.70,185.54 173.53,182.19 170.99,175.81 C167.82,167.88 167.73,167.21 166.98,146.51 C166.09,122.05 165.33,119.46 157.23,113.52 C143.42,103.39 125.46,104.51 114.41,116.18 C112.16,118.56 107.60,123.90 104.27,128.04 C97.04,137.04 91.63,141.65 83.38,145.81 C79.28,147.88 77.06,149.66 76.64,151.20 C75.65,154.91 75.91,163.83 77.03,164.52 C78.44,165.39 94.41,157.24 101.37,152.10 C104.48,149.80 108.03,146.44 109.26,144.62 C110.49,142.81 113.57,138.22 116.09,134.41 C118.62,130.61 122.55,125.81 124.84,123.75 C128.64,120.33 129.51,120.00 134.75,120.01 C143.30,120.02 150.08,123.47 152.86,129.20 C155.64,134.95 155.55,138.28 152.44,144.96 C149.38,151.52 145.37,156.63 134.05,168.35 C122.36,180.45 112.25,187.01 96.21,192.92 C84.79,197.12 80.98,197.56 78.24,195.01 C75.54,192.49 75.34,189.42 77.80,188.11 C78.79,187.58 85.46,184.94 92.62,182.25 C108.78,176.18 117.25,170.63 128.85,158.50 C141.63,145.13 145.18,136.99 140.05,132.84 C135.49,129.15 131.78,131.08 126.00,140.16 C117.32,153.78 99.26,167.66 81.80,174.11 C78.89,175.19 75.11,176.79 73.42,177.67 C70.38,179.25 70.24,179.21 63.97,175.14 C57.15,170.71 54.48,170.18 50.16,172.41 C45.56,174.80 44.52,178.10 44.51,190.39 C44.50,203.48 45.91,207.23 51.81,209.69 C55.66,211.30 57.62,210.96 67.69,206.89 C70.34,205.83 71.33,205.84 73.44,206.97 C74.85,207.72 76.00,209.17 76.00,210.19 C76.00,212.41 77.32,212.26 88.58,208.68 ZM 427.17 208.60 C429.20,207.88 432.68,205.84 434.91,204.07 C439.23,200.65 441.00,200.73 441.00,204.36 C441.00,207.95 442.95,209.00 449.63,209.00 C459.59,209.00 459.00,211.48 459.00,169.86 C459.00,146.96 458.62,133.16 457.96,131.93 C457.11,130.33 455.83,130.00 450.55,130.00 C440.18,130.00 441.00,127.75 441.00,156.14 C441.00,184.13 440.67,185.86 434.43,190.62 C431.07,193.19 429.86,193.50 423.34,193.50 C416.07,193.50 416.01,193.48 411.76,189.24 L 407.50 184.97 L 407.19 158.26 C406.96,139.02 406.54,131.33 405.69,130.79 C403.75,129.55 391.52,129.88 390.20,131.20 C389.33,132.07 389.00,139.69 389.00,159.22 C389.00,188.77 389.73,193.32 395.58,200.28 C402.52,208.53 416.83,212.30 427.17,208.60 ZM 521.72 208.49 C528.10,206.60 538.28,199.87 539.79,196.56 C540.82,194.31 540.60,193.72 537.72,191.03 C534.20,187.73 530.94,187.16 528.99,189.51 C524.95,194.38 509.09,196.77 501.72,193.63 C495.82,191.11 491.64,185.92 490.46,179.65 L 489.78 176.00 L 516.82 176.00 C547.08,176.00 547.00,176.02 547.00,169.11 C547.00,157.67 542.46,145.60 535.58,138.76 C531.12,134.32 527.88,132.85 517.00,130.34 C499.77,126.35 480.39,136.34 473.92,152.55 C470.57,160.93 470.52,177.89 473.83,185.85 C478.57,197.27 488.60,206.50 498.95,208.96 C504.78,210.34 516.29,210.10 521.72,208.49 ZM 717.29 208.48 C718.83,207.86 719.04,206.69 718.79,200.13 L 718.50 192.50 L 710.52 192.20 C704.00,191.96 702.11,191.52 700.27,189.78 C698.05,187.70 698.00,187.17 698.00,166.93 L 698.00 146.21 L 707.63 146.08 C712.92,146.02 717.65,145.72 718.13,145.42 C719.46,144.60 719.18,131.58 717.80,130.20 C717.04,129.44 713.20,129.00 707.30,129.00 L 698.00 129.00 L 698.00 118.07 C698.00,105.37 698.23,105.63 688.00,106.77 L 681.50 107.50 L 681.26 114.00 C681.13,117.57 680.76,122.41 680.45,124.75 L 679.88 129.00 L 674.37 129.00 C665.98,129.00 665.00,129.88 665.00,137.41 C665.00,145.01 665.88,145.99 672.87,146.15 L 678.00 146.26 L 678.01 167.88 C678.01,190.91 678.66,195.46 682.66,200.77 C687.77,207.54 695.28,210.20 707.50,209.59 C711.90,209.37 716.31,208.87 717.29,208.48 ZM 307.76 162.75 L 308.02 117.00 L 323.49 117.00 L 338.96 117.00 L 339.60 114.46 C340.32,111.58 339.59,100.77 338.56,99.10 C337.55,97.47 259.84,97.56 258.20,99.20 C257.47,99.93 257.00,103.44 257.00,108.09 C257.00,114.19 257.33,115.91 258.58,116.39 C259.45,116.73 266.43,117.00 274.08,117.00 L 288.00 117.00 L 288.00 162.33 C288.00,187.27 288.32,207.98 288.70,208.37 C289.09,208.75 293.47,208.94 298.45,208.78 L 307.50 208.50 L 307.76 162.75 ZM 352.00 185.50 C352.50,162.57 352.51,162.49 355.27,157.78 C359.51,150.57 363.85,147.76 371.83,147.07 L 378.50 146.50 L 378.79 138.80 C379.06,131.71 378.90,130.98 376.79,129.63 C372.77,127.06 364.74,129.10 357.84,134.46 L 352.00 139.00 L 352.00 134.61 C352.00,131.52 351.53,130.03 350.42,129.61 C347.56,128.51 335.45,128.95 334.20,130.20 C333.31,131.09 333.00,141.21 333.00,169.53 C333.00,190.51 333.32,207.98 333.70,208.37 C334.09,208.76 338.25,208.94 342.95,208.79 L 351.50 208.50 L 352.00 185.50 ZM 579.77 186.77 L 580.04 165.04 L 599.77 164.77 L 619.50 164.50 L 619.79 155.75 C620.07,147.25 620.01,147.00 617.79,146.86 C616.53,146.79 607.62,146.64 598.00,146.54 L 580.50 146.36 L 580.22 132.18 L 579.95 118.00 L 601.77 118.00 C617.42,118.00 623.94,117.66 624.80,116.80 C625.52,116.08 626.00,112.58 626.00,108.00 C626.00,103.42 625.52,99.92 624.80,99.20 C623.92,98.32 615.44,98.00 592.87,98.00 C566.27,98.00 561.93,98.21 560.57,99.57 C559.18,100.96 559.00,107.27 559.00,153.87 C559.00,194.37 559.29,206.89 560.23,207.83 C561.08,208.68 564.33,208.98 570.48,208.78 L 579.50 208.50 L 579.77 186.77 ZM 655.70 207.64 C656.60,206.73 657.36,135.76 656.50,132.21 C655.97,130.02 655.57,129.93 647.72,130.21 L 639.50 130.50 L 639.24 168.93 C639.03,198.99 639.25,207.55 640.24,208.23 C641.76,209.26 654.56,208.77 655.70,207.64 ZM 195.02 177.88 C195.69,174.22 195.41,172.79 193.17,168.53 C190.59,163.61 190.54,163.08 190.52,144.50 C190.50,125.58 190.49,125.47 187.53,119.00 C183.61,110.41 179.01,104.07 173.28,99.36 C159.31,87.86 150.20,84.61 133.55,85.17 C123.17,85.53 122.03,85.78 114.68,89.35 C106.24,93.45 93.82,104.21 89.85,110.87 C85.99,117.36 83.41,118.43 80.12,114.89 C77.73,112.33 78.03,110.44 81.89,103.70 C88.45,92.22 105.32,79.12 119.00,74.88 C125.00,73.02 128.71,72.56 137.50,72.60 C152.75,72.67 159.32,75.10 176.19,86.92 C188.01,95.21 199.06,112.28 200.64,124.71 C200.97,127.35 201.95,130.06 202.81,130.75 C204.99,132.48 218.38,132.38 221.80,130.60 C227.00,127.89 229.35,124.39 229.43,119.22 C229.52,113.40 228.83,112.46 214.96,99.47 C209.21,94.07 193.93,79.46 181.00,67.00 C168.07,54.54 154.57,41.57 151.00,38.17 C139.48,27.25 134.13,27.70 120.42,40.79 C115.97,45.03 97.20,62.80 78.71,80.28 C42.66,114.35 42.86,114.10 44.40,122.34 C45.74,129.45 52.32,132.29 63.75,130.67 C71.46,129.57 74.74,130.33 76.19,133.53 C76.81,134.89 77.98,136.00 78.79,136.00 C81.78,136.00 87.02,131.72 93.82,123.72 C104.74,110.87 113.84,102.60 120.51,99.46 C136.14,92.09 156.60,97.07 169.89,111.49 C177.72,119.99 178.41,122.70 178.46,145.00 L 178.50 164.50 L 182.20 172.24 C184.23,176.50 187.08,181.17 188.53,182.62 C190.90,184.99 191.32,185.10 192.70,183.73 C193.54,182.89 194.59,180.25 195.02,177.88 ZM 652.64 116.37 C661.62,112.11 660.94,99.12 651.59,96.03 C646.94,94.50 643.58,95.57 639.90,99.77 C637.23,102.81 636.85,103.88 637.31,107.24 C637.91,111.72 640.19,114.70 644.50,116.60 C648.37,118.31 648.56,118.30 652.64,116.37 ZM 490.54 161.66 C489.14,160.63 488.87,159.63 489.42,157.41 C491.72,148.08 502.26,142.61 514.45,144.44 C520.27,145.31 526.28,150.71 527.89,156.50 C529.59,162.64 528.54,163.00 509.00,163.00 C496.66,163.00 491.91,162.65 490.54,161.66 ZM 119.31 62.83 C111.85,59.14 120.50,51.75 133.92,50.35 C141.40,49.57 151.75,52.08 156.08,55.72 C159.52,58.62 159.71,60.04 157.00,62.50 C155.16,64.17 154.42,64.21 148.12,63.02 C141.76,61.82 128.59,62.01 123.50,63.38 C122.40,63.67 120.51,63.43 119.31,62.83 Z" fill="rgb(254,254,254)"/>
</g>
</svg>